# xmcd
#
# Track frame offsets:
#	150
#	14815
#	39910
#	57180
#	75920
#	94655
#	111635
#	130875
#	151680
#
# Disc length: 2339 seconds
#
# Revision: 1
# Processed by: cddbd v1.5.1PL0 Copyright (c) Steve Scherf et al.
# Submitted via: CDex 1.50Beta5
#
DISCID=67092109
DTITLE=Phobia - 妖幻鏡 -mirrors of new generation-
DYEAR=2001
DGENRE=Rock
TTITLE0=Phobia/wave a head
TTITLE1=Chrono Sphere/Solitude
TTITLE2=Fatima/Anachronism
TTITLE3=k@mikaze/犬
TTITLE4=Galruda/阿片
TTITLE5=Crack brain/Nasty TRic
TTITLE6=PERSONA/純潔サディスティック
TTITLE7=Loz’a≠Veria/「 」…
TTITLE8=dead man/in media
EXTD=
EXTT0=
EXTT1=
EXTT2=
EXTT3=
EXTT4=
EXTT5=
EXTT6=
EXTT7=
EXTT8=
PLAYORDER=
